<?xml version="1.0" standalone="no"?>
<!DOCTYPE svg PUBLIC "-//W3C//DTD SVG 20010904//EN"
 "http://www.w3.org/TR/2001/REC-SVG-20010904/DTD/svg10.dtd">
<svg version="1.0" xmlns="http://www.w3.org/2000/svg"
 width="251.000000pt" height="251.000000pt" viewBox="0 0 251.000000 251.000000"
 preserveAspectRatio="xMidYMid meet">
<metadata>
Created by potrace 1.11, written by Peter Selinger 2001-2013
</metadata>
<g transform="translate(0.000000,251.000000) scale(0.100000,-0.100000)"
fill="#000000" stroke="none">
<path d="M1057 2499 c-31 -4 -74 -13 -95 -18 -20 -6 -40 -11 -44 -11 -19 -1
-173 -62 -230 -91 -63 -32 -201 -121 -227 -147 -12 -11 -6 -21 39 -67 l52 -53
67 48 c123 89 301 165 433 185 23 4 50 9 58 10 8 2 20 4 26 4 7 1 11 26 10 73
-1 82 1 81 -89 67z"/>
<path d="M1359 2473 c-2 -80 -1 -104 3 -108 2 -3 22 -7 44 -10 169 -25 332
-91 475 -190 l76 -53 52 52 53 53 -59 45 c-172 131 -384 217 -595 242 l-48 6
-1 -37z"/>
<path d="M1197 2184 c-1 -1 -27 -5 -57 -7 -30 -3 -62 -8 -70 -11 -8 -3 -26 -7
-40 -10 -124 -21 -300 -120 -415 -232 -139 -135 -214 -270 -265 -476 -17 -70
-20 -264 -6 -358 l7 -45 -70 -73 c-75 -79 -80 -79 -95 -7 -3 17 -9 41 -12 55
-3 14 -8 45 -12 70 l-7 45 -77 0 -78 1 6 -55 c3 -30 8 -60 12 -65 3 -6 8 -20
9 -31 8 -51 59 -198 93 -270 164 -341 451 -574 841 -681 64 -18 177 -28 299
-28 159 0 284 21 415 69 308 113 554 335 704 633 37 73 80 200 91 265 5 34 13
73 16 87 3 14 7 90 9 170 5 233 -29 399 -119 581 -58 117 -146 249 -167 249
-7 0 -99 -88 -99 -95 0 -2 24 -42 54 -87 65 -101 95 -160 129 -255 62 -172 78
-394 42 -573 -13 -66 -17 -80 -23 -80 -4 0 -37 31 -73 68 l-66 67 3 128 c2
141 -16 249 -63 366 -136 346 -467 577 -836 585 -43 1 -79 1 -80 0z m173 -158
c359 -59 628 -349 655 -708 3 -32 2 -58 -1 -58 -4 0 -101 95 -216 211 l-209
211 -334 -336 c-184 -185 -337 -336 -340 -336 -3 0 -73 68 -156 151 l-151 151
-68 -67 -68 -68 0 82 c0 265 140 517 366 658 82 51 209 98 292 108 30 4 56 8
57 9 5 5 129 -1 173 -8z m565 -896 l323 -324 -33 -66 c-132 -262 -395 -471
-690 -550 -107 -28 -159 -34 -295 -34 -385 2 -732 202 -934 538 l-35 59 172
173 172 174 300 -300 301 -300 52 51 c29 28 52 52 52 54 0 2 -65 68 -145 148
l-145 144 282 282 c154 155 285 280 290 279 6 -2 155 -149 333 -328z"/>
<path d="M233 1987 c-87 -122 -192 -362 -205 -467 -2 -14 -6 -27 -9 -30 -3 -3
-9 -32 -13 -65 l-7 -61 77 1 c85 0 78 -6 89 80 7 47 44 186 54 200 4 6 15 31
25 56 19 53 85 166 129 222 l30 38 -49 50 c-26 27 -53 49 -59 49 -5 0 -33 -33
-62 -73z"/>
</g>
</svg>
